<svg xmlns="http://www.w3.org/2000/svg" width="18" height="18" viewBox="0 0 18 18" fill="none">
<path fill-rule="evenodd" clip-rule="evenodd" d="M3.92663 11.3071C3.92663 12.319 3.1001 13.1455 2.08831 13.1455C1.07653 13.1455 0.25 12.319 0.25 11.3071C0.25 10.2953 1.07653 9.46875 2.08831 9.46875H3.92663V11.3071Z" fill="#E01E5A"/>
<path fill-rule="evenodd" clip-rule="evenodd" d="M4.85156 11.3071C4.85156 10.2953 5.67809 9.46875 6.68988 9.46875C7.70166 9.46875 8.52819 10.2953 8.52819 11.3071V15.9102C8.52819 16.922 7.70166 17.7485 6.68988 17.7485C5.67809 17.7485 4.85156 16.922 4.85156 15.9102V11.3071Z" fill="#E01E5A"/>
<path fill-rule="evenodd" clip-rule="evenodd" d="M6.68988 3.92672C5.67809 3.92672 4.85156 3.10017 4.85156 2.08836C4.85156 1.07655 5.67809 0.25 6.68988 0.25C7.70166 0.25 8.52819 1.07655 8.52819 2.08836V3.92672H6.68988Z" fill="#36C5F0"/>
<path fill-rule="evenodd" clip-rule="evenodd" d="M6.69122 4.85059C7.70301 4.85059 8.52954 5.67713 8.52954 6.68893C8.52954 7.70074 7.70301 8.52728 6.69122 8.52728H2.08831C1.07653 8.52728 0.25 7.70074 0.25 6.68893C0.25 5.67713 1.07653 4.85059 2.08831 4.85059H6.69122Z" fill="#36C5F0"/>
<path fill-rule="evenodd" clip-rule="evenodd" d="M14.0742 6.68893C14.0742 5.67713 14.9008 4.85059 15.9126 4.85059C16.9244 4.85059 17.7509 5.67713 17.7509 6.68893C17.7509 7.70074 16.9244 8.52728 15.9126 8.52728H14.0742V6.68893Z" fill="#2EB67D"/>
<path fill-rule="evenodd" clip-rule="evenodd" d="M13.1453 6.69138C13.1453 7.70319 12.3188 8.52974 11.307 8.52974C10.2953 8.52974 9.46875 7.70319 9.46875 6.69138V2.08836C9.46875 1.07655 10.2953 0.25 11.307 0.25C12.3188 0.25 13.1453 1.07655 13.1453 2.08836V6.69138Z" fill="#2EB67D"/>
<path fill-rule="evenodd" clip-rule="evenodd" d="M11.307 14.0732C12.3188 14.0732 13.1453 14.8998 13.1453 15.9116C13.1453 16.9235 12.3188 17.75 11.307 17.75C10.2953 17.75 9.46875 16.9235 9.46875 15.9116V14.0732H11.307Z" fill="#ECB22E"/>
<path fill-rule="evenodd" clip-rule="evenodd" d="M11.3071 13.1455C10.2953 13.1455 9.46875 12.319 9.46875 11.3071C9.46875 10.2953 10.2953 9.46875 11.3071 9.46875H15.9099C16.9217 9.46875 17.7482 10.2953 17.7482 11.3071C17.7482 12.319 16.9217 13.1455 15.9099 13.1455H11.3071Z" fill="#ECB22E"/>
</svg>